<svg width="195" height="62" viewBox="0 0 195 62" fill="none" xmlns="http://www.w3.org/2000/svg">
<path d="M8.38069 6.91682V11.5967H19.3114V17.7587H8.38069V22.5885H19.7555V28.7505H1.10278V0.743652H19.7555V6.91682H8.38069Z" fill="#231F20"/>
<path d="M74.4092 28.7398H67.1313V6.9172H58.9485V0.755127H81.7093V6.9172H74.4092V28.7398Z" fill="#231F20"/>
<path d="M108.573 28.7394H99.5072L92.6401 17.9752H92.5679V28.7394H85.3177V0.743652H96.193C101.744 0.743652 105.925 3.38057 105.925 9.35944C105.925 13.2454 103.771 16.5763 99.818 17.2647L108.573 28.7394ZM92.5679 13.2954H93.2729C95.6489 13.2954 98.3192 12.8457 98.3192 9.80357C98.3192 6.76139 95.6489 6.31172 93.2729 6.31172H92.5679V13.2954Z" fill="#231F20"/>
<path d="M118.593 23.8764L116.667 28.7394H108.939L119.736 0.743652H127.686L138.234 28.7394H130.462L128.619 23.8764H118.593ZM123.684 9.39275H123.622L120.619 18.3083H126.67L123.684 9.39275Z" fill="#231F20"/>
<path d="M141.387 0.743652H148.659L161.983 17.8587H162.055V0.743652H169.333V28.7394H162.077L148.754 11.5856H148.676V28.7394H141.387V0.743652Z" fill="#231F20"/>
<path d="M190.412 7.94408C189.064 6.7863 187.358 6.13107 185.582 6.0899C184.25 6.0899 182.462 6.8671 182.462 8.42705C182.462 9.987 184.433 10.692 185.693 11.1028L187.553 11.658C191.439 12.8127 194.459 14.7779 194.459 19.3078C194.459 22.0835 193.792 24.9536 191.561 26.8466C189.329 28.7397 186.437 29.4836 183.617 29.4836C180.087 29.4498 176.652 28.3358 173.774 26.2915L176.916 20.4236C178.737 22.0225 180.891 23.3215 183.378 23.3215C185.088 23.3215 186.903 22.4666 186.903 20.4958C186.903 18.5251 184.044 17.7479 182.462 17.3038C177.899 16.0047 174.89 14.8167 174.89 9.39299C174.89 3.7139 178.937 0 184.544 0C187.608 0.054491 190.614 0.844628 193.309 2.30384L190.412 7.94408Z" fill="#231F20"/>
<path d="M20.8713 51.0117V51.8278C20.8713 57.4514 16.9076 61.7759 11.173 61.7759C5.4384 61.7759 0.814069 56.8296 0.814069 51.1505C0.796157 48.9331 1.46923 46.7651 2.73981 44.9476C4.01039 43.1302 5.81541 41.7535 7.90417 41.0089C9.99292 40.2642 12.2617 40.1884 14.3955 40.7922C16.5293 41.3959 18.4221 42.6491 19.811 44.3778L18.0124 46.0932C16.9985 44.6921 15.5618 43.6534 13.9135 43.13C12.2652 42.6065 10.4925 42.6258 8.85603 43.1852C7.21959 43.7446 5.80587 44.8144 4.82289 46.2373C3.83992 47.6602 3.33957 49.361 3.39547 51.0895C3.39547 55.3807 6.92617 59.461 11.3562 59.461C14.5372 59.461 17.9624 56.713 18.0679 53.3544H12.7663V51.0173L20.8713 51.0117Z" fill="#231F20"/>
<path d="M45.3475 59.0003H53.2361V61.3208H42.7994V40.8472H45.3475V59.0003Z" fill="#231F20"/>
<path d="M92.6902 51.0953C92.6902 53.9428 91.559 56.6737 89.5455 58.6871C87.5321 60.7006 84.8012 61.8318 81.9537 61.8318C79.1062 61.8318 76.3754 60.7006 74.3619 58.6871C72.3484 56.6737 71.2173 53.9428 71.2173 51.0953C71.2173 48.2478 72.3484 45.517 74.3619 43.5035C76.3754 41.49 79.1062 40.3589 81.9537 40.3589C84.8012 40.3589 87.5321 41.49 89.5455 43.5035C91.559 45.517 92.6902 48.2478 92.6902 51.0953ZM90.1365 51.0953C90.165 50.0032 89.9744 48.9164 89.5761 47.8991C89.1778 46.8817 88.5798 45.9545 87.8175 45.172C87.0551 44.3894 86.1437 43.7675 85.1371 43.3429C84.1305 42.9182 83.049 42.6994 81.9565 42.6994C80.864 42.6994 79.7825 42.9182 78.7759 43.3429C77.7693 43.7675 76.8579 44.3894 76.0955 45.172C75.3331 45.9545 74.7351 46.8817 74.3369 47.8991C73.9386 48.9164 73.748 50.0032 73.7765 51.0953C73.748 52.1875 73.9386 53.2743 74.3369 54.2916C74.7351 55.3089 75.3331 56.2362 76.0955 57.0187C76.8579 57.8012 77.7693 58.4231 78.7759 58.8478C79.7825 59.2724 80.864 59.4912 81.9565 59.4912C83.049 59.4912 84.1305 59.2724 85.1371 58.8478C86.1437 58.4231 87.0551 57.8012 87.8175 57.0187C88.5798 56.2362 89.1778 55.3089 89.5761 54.2916C89.9744 53.2743 90.165 52.1875 90.1365 51.0953Z" fill="#231F20"/>
<path d="M112.609 40.8472H115.112C118.97 40.8472 122.612 41.852 122.612 46.4708C122.612 47.9696 121.796 49.7072 120.392 50.3567V50.4123C122.812 50.8453 124.494 53.188 124.494 55.6028C124.494 59.7053 120.991 61.3374 117.377 61.3374H112.592L112.609 40.8472ZM115.162 49.9237H115.817C118.238 49.9237 120.22 49.4352 120.22 46.4985C120.22 43.5618 118.26 43.1288 115.873 43.1288H115.162V49.9237ZM115.162 59.0558H117.122C119.487 59.0558 121.957 58.3508 121.957 55.4418C121.957 52.5329 119.02 51.9611 116.739 51.9611H115.162V59.0558Z" fill="#231F20"/>
<path d="M148.515 56.2024L146.178 61.3208H143.435L153.217 39.959L163.004 61.3208H160.228L157.891 56.1858L148.515 56.2024ZM153.217 45.577L149.575 53.8653H156.859L153.217 45.577Z" fill="#231F20"/>
<path d="M186.354 59.0003H194.242V61.3208H183.789V40.8472H186.354V59.0003Z" fill="#231F20"/>
<path d="M22.5479 0.588379H31.8076L44.4593 13.5953L31.8076 29.0949H22.5479L35.194 13.5953L22.5479 0.588379Z" fill="#005DAA"/>
<path d="M57.2831 0.588379H48.0178L35.3717 13.5953L48.0178 29.0949H57.2831L44.637 13.5953L57.2831 0.588379Z" fill="#F47D30"/>
</svg>
